<svg xmlns="http://www.w3.org/2000/svg" xmlns:xlink="http://www.w3.org/1999/xlink" width="500" zoomAndPan="magnify" viewBox="0 0 375 374.999991" height="500" preserveAspectRatio="xMidYMid meet" version="1.0"><defs><clipPath id="id1"><path d="M 110 0.398438 L 287 0.398438 L 287 193 L 110 193 Z M 110 0.398438 " clip-rule="nonzero"/></clipPath></defs><path fill="#ffffff" d="M 78.285156 339.582031 C 78.316406 339.847656 78.328125 340.109375 78.359375 340.371094 C 30.957031 306.378906 0.0585938 250.773438 0.0585938 187.96875 C 0.0585938 186.585938 0.0742188 185.207031 0.109375 183.824219 C 0.511719 183.496094 0.917969 183.171875 1.320312 182.847656 C 1.585938 182.644531 1.832031 182.441406 2.097656 182.238281 C 2.824219 181.664062 3.554688 181.105469 4.316406 180.5625 C 4.503906 180.425781 4.6875 180.285156 4.875 180.140625 C 5.726562 179.523438 6.582031 178.917969 7.449219 178.3125 L 7.734375 178.125 C 33.8125 160.242188 70.210938 149.9375 109.269531 149.9375 C 138.128906 149.9375 163.199219 155.589844 180.058594 164.976562 L 176.519531 165.859375 C 174.015625 166.480469 171.488281 167.324219 168.941406 168.347656 L 167.996094 168.722656 C 146.667969 177.648438 124.234375 199.949219 106.519531 230.3125 C 87.800781 262.429688 77.878906 297.222656 77.878906 328.578125 L 77.878906 329.679688 C 77.898438 330.703125 77.914062 331.726562 77.929688 332.734375 C 77.960938 333.515625 77.988281 334.273438 78.019531 335.050781 C 78.050781 335.65625 78.082031 336.257812 78.117188 336.882812 C 78.15625 337.785156 78.222656 338.6875 78.285156 339.582031 " fill-opacity="1" fill-rule="nonzero"/><path fill="#ffffff" d="M 2.390625 168.625 C 1.910156 168.949219 1.425781 169.292969 0.945312 169.617188 C 7.082031 106.53125 44.457031 52.621094 97.410156 23.527344 C 98.648438 23.992188 99.894531 24.496094 101.121094 25.007812 C 101.257812 25.082031 101.414062 25.140625 101.554688 25.210938 C 102.984375 25.8125 104.375 26.449219 105.789062 27.113281 C 105.976562 27.210938 106.179688 27.285156 106.382812 27.398438 C 151.773438 49.191406 188.484375 101.164062 200.003906 145.390625 C 202.300781 154.234375 203.476562 162.445312 203.605469 169.851562 L 202.609375 168.8125 C 200.421875 166.390625 197.972656 164.121094 195.253906 162.011719 L 194.445312 161.390625 C 175.894531 147.230469 145 138.960938 109.441406 138.960938 C 68.675781 138.960938 30.457031 149.75 2.5625 168.519531 L 2.390625 168.625 " fill-opacity="1" fill-rule="nonzero"/><path fill="#ffffff" d="M 235.597656 340.4375 C 244.292969 347.300781 254.117188 353.707031 264.984375 358.800781 C 241.386719 369.507812 215.1875 375.476562 187.570312 375.476562 C 151.929688 375.476562 118.597656 365.523438 90.238281 348.257812 C 90.191406 347.964844 90.144531 347.671875 90.09375 347.375 C 89.972656 346.535156 89.851562 345.699219 89.738281 344.84375 C 89.695312 344.566406 89.664062 344.273438 89.632812 343.972656 C 89.246094 340.746094 88.964844 337.453125 88.824219 334.117188 C 88.824219 333.921875 88.808594 333.734375 88.808594 333.542969 C 88.761719 332.457031 88.730469 331.371094 88.71875 330.269531 L 88.71875 329.492188 C 88.71875 328.082031 88.730469 326.652344 88.761719 325.210938 C 88.777344 324.261719 88.808594 323.316406 88.839844 322.351562 C 88.859375 321.976562 88.882812 321.609375 88.898438 321.234375 C 88.980469 319.917969 89.058594 318.582031 89.167969 317.246094 L 89.183594 317.136719 C 92.226562 279.976562 109.316406 242.175781 129.402344 215.75 C 140.472656 201.195312 152.410156 190.003906 163.867188 183.109375 L 162.898438 186.480469 C 162.839844 186.710938 162.792969 186.945312 162.734375 187.164062 C 162.5 188.078125 162.265625 188.996094 162.0625 189.921875 C 161.863281 190.882812 161.679688 191.867188 161.519531 192.84375 C 161.460938 193.183594 161.394531 193.523438 161.347656 193.882812 C 161.335938 194.019531 161.304688 194.160156 161.289062 194.300781 L 161.117188 195.3125 C 158.183594 218.238281 166.273438 248.820312 183.71875 279.324219 C 197.816406 303.957031 215.804688 324.914062 235.597656 340.4375 " fill-opacity="1" fill-rule="nonzero"/><g clip-path="url(#id1)"><path fill="#ffffff" d="M 139.429688 35.40625 C 130.769531 28.578125 120.976562 22.210938 110.15625 17.152344 C 133.746094 6.425781 159.953125 0.464844 187.570312 0.464844 C 223.210938 0.464844 256.539062 10.410156 284.902344 27.675781 C 284.945312 27.96875 284.992188 28.25 285.039062 28.542969 C 285.164062 29.398438 285.285156 30.238281 285.398438 31.089844 C 285.445312 31.367188 285.457031 31.652344 285.503906 31.945312 C 285.894531 35.171875 286.171875 38.464844 286.316406 41.800781 C 286.316406 42.003906 286.324219 42.207031 286.324219 42.410156 C 286.375 43.476562 286.40625 44.566406 286.421875 45.648438 L 286.421875 46.484375 C 286.421875 47.808594 286.421875 49.128906 286.390625 50.445312 C 286.359375 51.503906 286.34375 52.542969 286.292969 53.597656 C 286.285156 53.941406 286.25 54.28125 286.234375 54.625 C 286.15625 55.988281 286.082031 57.355469 285.972656 58.722656 L 285.972656 58.753906 C 282.925781 95.933594 265.824219 133.730469 245.746094 160.167969 C 234.664062 174.742188 222.730469 185.9375 211.269531 192.824219 L 212.234375 189.457031 C 212.300781 189.238281 212.34375 188.996094 212.40625 188.777344 C 212.640625 187.859375 212.871094 186.929688 213.074219 185.996094 C 213.277344 185.050781 213.460938 184.089844 213.617188 183.109375 C 213.679688 182.75 213.738281 182.394531 213.789062 182.035156 C 213.804688 181.898438 213.835938 181.773438 213.847656 181.636719 L 214.019531 180.628906 C 216.953125 157.695312 208.867188 127.117188 191.417969 96.617188 C 177.308594 71.929688 159.269531 50.945312 139.429688 35.40625 " fill-opacity="1" fill-rule="nonzero"/></g><path fill="#ffffff" d="M 372.855469 207.21875 C 373.304688 206.925781 373.753906 206.609375 374.191406 206.300781 C 368.074219 269.386719 330.675781 323.316406 277.730469 352.40625 C 276.519531 351.941406 275.289062 351.457031 274.078125 350.945312 C 273.867188 350.851562 273.628906 350.746094 273.402344 350.65625 C 272.078125 350.09375 270.777344 349.503906 269.46875 348.882812 C 269.207031 348.753906 268.941406 348.632812 268.679688 348.511719 C 223.320312 326.683594 186.652344 274.761719 175.136719 230.550781 C 172.835938 221.703125 171.65625 213.488281 171.535156 206.082031 L 172.511719 207.089844 C 174.683594 209.527344 177.152344 211.796875 179.886719 213.921875 L 180.691406 214.546875 L 180.847656 214.667969 C 180.96875 214.757812 181.097656 214.855469 181.21875 214.945312 L 181.40625 215.085938 C 200.046875 228.917969 230.582031 236.972656 265.679688 236.972656 L 265.695312 236.972656 C 306.460938 236.972656 344.664062 226.183594 372.558594 207.421875 L 372.855469 207.21875 " fill-opacity="1" fill-rule="nonzero"/><path fill="#ffffff" d="M 375.074219 187.96875 C 375.074219 189.351562 375.058594 190.730469 375.027344 192.109375 C 374.6875 192.410156 374.34375 192.671875 373.988281 192.949219 C 373.644531 193.230469 373.289062 193.507812 372.945312 193.777344 C 372.3125 194.273438 371.660156 194.769531 370.992188 195.25 C 370.726562 195.453125 370.449219 195.65625 370.167969 195.851562 C 369.410156 196.410156 368.632812 196.972656 367.839844 197.515625 C 367.667969 197.625 367.5 197.746094 367.328125 197.867188 C 366.414062 198.492188 365.480469 199.113281 364.535156 199.738281 L 364.410156 199.8125 C 338.582031 216.449219 303.449219 225.996094 265.867188 225.996094 L 265.851562 225.996094 C 237.011719 225.996094 211.941406 220.351562 195.085938 210.960938 L 198.621094 210.074219 C 201.121094 209.449219 203.648438 208.617188 206.199219 207.59375 L 207.144531 207.21875 C 228.472656 198.304688 250.902344 175.984375 268.597656 145.621094 C 287.335938 113.5 297.253906 78.71875 297.253906 47.359375 L 297.253906 46.257812 C 297.246094 45.230469 297.222656 44.207031 297.207031 43.199219 C 297.179688 42.417969 297.148438 41.660156 297.117188 40.886719 C 297.085938 40.28125 297.050781 39.671875 297.019531 39.066406 C 296.976562 38.148438 296.914062 37.253906 296.855469 36.351562 C 296.824219 36.089844 296.808594 35.808594 296.773438 35.546875 C 344.183594 69.554688 375.074219 125.160156 375.074219 187.96875 " fill-opacity="1" fill-rule="nonzero"/></svg>